# Blender v2.77 (sub 0) OBJ File: ''
# www.blender.org
mtllib tutorial_item.mtl
o Cone
v 0.000000 -1.000000 -1.000000
v 0.195090 -1.000000 -0.980785
v 0.382683 -1.000000 -0.923880
v 0.555570 -1.000000 -0.831470
v 0.707107 -1.000000 -0.707107
v 0.831470 -1.000000 -0.555570
v 0.923880 -1.000000 -0.382683
v 0.980785 -1.000000 -0.195090
v 1.000000 -1.000000 -0.000000
v 0.000000 1.000000 0.000000
v 0.980785 -1.000000 0.195090
v 0.923880 -1.000000 0.382683
v 0.831470 -1.000000 0.555570
v 0.707107 -1.000000 0.707107
v 0.555570 -1.000000 0.831470
v 0.382683 -1.000000 0.923880
v 0.195090 -1.000000 0.980785
v -0.000000 -1.000000 1.000000
v -0.195091 -1.000000 0.980785
v -0.382684 -1.000000 0.923879
v -0.555571 -1.000000 0.831469
v -0.707107 -1.000000 0.707106
v -0.831470 -1.000000 0.555570
v -0.923880 -1.000000 0.382683
v -0.980785 -1.000000 0.195089
v -1.000000 -1.000000 -0.000001
v -0.980785 -1.000000 -0.195091
v -0.923879 -1.000000 -0.382684
v -0.831469 -1.000000 -0.555571
v -0.707106 -1.000000 -0.707108
v -0.555569 -1.000000 -0.831470
v -0.382682 -1.000000 -0.923880
v -0.195089 -1.000000 -0.980786
vt 0.7816 0.0150
vt 0.7816 0.4661
vt 0.7421 0.0168
vt 0.8626 0.4671
vt 0.8429 0.9178
vt 0.8231 0.4671
vt 0.6198 0.4671
vt 0.6198 0.9182
vt 0.5803 0.4688
vt 0.4581 0.4671
vt 0.4581 0.9182
vt 0.4186 0.4688
vt 0.3387 0.4175
vt 0.3387 0.8686
vt 0.2992 0.4192
vt 0.9436 0.4671
vt 0.9238 0.9178
vt 0.9040 0.4671
vt 0.8221 0.0150
vt 0.8221 0.4661
vt 0.7826 0.0168
vt 0.2578 0.4175
vt 0.2578 0.8686
vt 0.2183 0.4192
vt 0.9434 0.0150
vt 0.9237 0.4657
vt 0.9039 0.0150
vt 0.5390 0.4671
vt 0.5192 0.9178
vt 0.4994 0.4671
vt 0.3791 0.4175
vt 0.3791 0.8686
vt 0.3396 0.4192
vt 0.4581 0.0150
vt 0.4581 0.4661
vt 0.4186 0.0168
vt 0.9030 0.0150
vt 0.9030 0.4661
vt 0.8635 0.0168
vt 0.5390 0.0150
vt 0.5390 0.4661
vt 0.4994 0.0168
vt 0.1365 0.4175
vt 0.1365 0.8686
vt 0.0970 0.4192
vt 0.5794 0.0150
vt 0.5794 0.4661
vt 0.5399 0.0168
vt 0.7817 0.4671
vt 0.7619 0.9178
vt 0.7421 0.4671
vt 0.2174 0.4175
vt 0.2174 0.8686
vt 0.1779 0.4192
vt 0.7007 0.4671
vt 0.6810 0.9178
vt 0.6612 0.4671
vt 0.4985 0.0150
vt 0.4985 0.4661
vt 0.4590 0.0168
vt 0.7412 0.0150
vt 0.7412 0.4661
vt 0.7017 0.0168
vt 0.7007 0.0150
vt 0.7007 0.4661
vt 0.6612 0.0168
vt 0.9031 0.4671
vt 0.8833 0.9178
vt 0.8636 0.4671
vt 0.6198 0.0150
vt 0.6198 0.4661
vt 0.5803 0.0168
vt 0.2983 0.4175
vt 0.2983 0.8686
vt 0.2587 0.4192
vt 0.6603 0.0150
vt 0.6603 0.4661
vt 0.6208 0.0168
vt 0.1769 0.4175
vt 0.1769 0.8686
vt 0.1374 0.4192
vt 0.0960 0.4175
vt 0.0960 0.8686
vt 0.0565 0.4192
vt 0.8625 0.0150
vt 0.8625 0.4661
vt 0.8230 0.0168
vt 0.0556 0.4175
vt 0.0556 0.8686
vt 0.0161 0.4192
vt 0.8221 0.4671
vt 0.8024 0.9178
vt 0.7826 0.4671
vt 0.9839 0.0150
vt 0.9642 0.4657
vt 0.9444 0.0150
vt 0.1971 0.0150
vt 0.2366 0.0150
vt 0.2754 0.0227
vt 0.3119 0.0379
vt 0.3448 0.0599
vt 0.3728 0.0878
vt 0.3948 0.1207
vt 0.4099 0.1572
vt 0.4176 0.1960
vt 0.4176 0.2356
vt 0.4099 0.2744
vt 0.3948 0.3109
vt 0.3728 0.3438
vt 0.3448 0.3718
vt 0.3119 0.3937
vt 0.2754 0.4089
vt 0.2366 0.4166
vt 0.1971 0.4166
vt 0.1583 0.4089
vt 0.1217 0.3937
vt 0.0889 0.3717
vt 0.0609 0.3438
vt 0.0389 0.3109
vt 0.0238 0.2744
vt 0.0161 0.2356
vt 0.0161 0.1960
vt 0.0238 0.1572
vt 0.0389 0.1207
vt 0.0609 0.0878
vt 0.0889 0.0599
vt 0.1217 0.0379
vt 0.1583 0.0227
vn 0.0878 0.4455 -0.8910
vn 0.2599 0.4455 -0.8567
vn 0.4220 0.4455 -0.7896
vn 0.5680 0.4455 -0.6921
vn 0.6921 0.4455 -0.5680
vn 0.7896 0.4455 -0.4220
vn 0.8567 0.4455 -0.2599
vn 0.8910 0.4455 -0.0878
vn 0.8910 0.4455 0.0878
vn 0.8567 0.4455 0.2599
vn 0.7896 0.4455 0.4220
vn 0.6921 0.4455 0.5680
vn 0.5680 0.4455 0.6921
vn 0.4220 0.4455 0.7896
vn 0.2599 0.4455 0.8567
vn 0.0878 0.4455 0.8910
vn -0.0878 0.4455 0.8910
vn -0.2599 0.4455 0.8567
vn -0.4220 0.4455 0.7896
vn -0.5680 0.4455 0.6921
vn -0.6921 0.4455 0.5680
vn -0.7896 0.4455 0.4220
vn -0.8567 0.4455 0.2599
vn -0.8910 0.4455 0.0878
vn -0.8910 0.4455 -0.0878
vn -0.8567 0.4455 -0.2599
vn -0.7896 0.4455 -0.4220
vn -0.6921 0.4455 -0.5680
vn -0.5680 0.4455 -0.6921
vn -0.4220 0.4455 -0.7896
vn -0.2599 0.4455 -0.8567
vn -0.0878 0.4455 -0.8910
vn 0.0000 -1.0000 -0.0000
usemtl Material.001
s off
f 1/1/1 10/2/1 2/3/1
f 2/4/2 10/5/2 3/6/2
f 3/7/3 10/8/3 4/9/3
f 4/10/4 10/11/4 5/12/4
f 5/13/5 10/14/5 6/15/5
f 6/16/6 10/17/6 7/18/6
f 7/19/7 10/20/7 8/21/7
f 8/22/8 10/23/8 9/24/8
f 9/25/9 10/26/9 11/27/9
f 11/28/10 10/29/10 12/30/10
f 12/31/11 10/32/11 13/33/11
f 13/34/12 10/35/12 14/36/12
f 14/37/13 10/38/13 15/39/13
f 15/40/14 10/41/14 16/42/14
f 16/43/15 10/44/15 17/45/15
f 17/46/16 10/47/16 18/48/16
f 18/49/17 10/50/17 19/51/17
f 19/52/18 10/53/18 20/54/18
f 20/55/19 10/56/19 21/57/19
f 21/58/20 10/59/20 22/60/20
f 22/61/21 10/62/21 23/63/21
f 23/64/22 10/65/22 24/66/22
f 24/67/23 10/68/23 25/69/23
f 25/70/24 10/71/24 26/72/24
f 26/73/25 10/74/25 27/75/25
f 27/76/26 10/77/26 28/78/26
f 28/79/27 10/80/27 29/81/27
f 29/82/28 10/83/28 30/84/28
f 30/85/29 10/86/29 31/87/29
f 31/88/30 10/89/30 32/90/30
f 32/91/31 10/92/31 33/93/31
f 33/94/32 10/95/32 1/96/32
f 1/97/33 2/98/33 3/99/33 4/100/33 5/101/33 6/102/33 7/103/33 8/104/33 9/105/33 11/106/33 12/107/33 13/108/33 14/109/33 15/110/33 16/111/33 17/112/33 18/113/33 19/114/33 20/115/33 21/116/33 22/117/33 23/118/33 24/119/33 25/120/33 26/121/33 27/122/33 28/123/33 29/124/33 30/125/33 31/126/33 32/127/33 33/128/33
